<svg width="40" height="47" viewBox="0 0 40 47" fill="none" xmlns="http://www.w3.org/2000/svg"><path d="M5.8579 33.9016C9.63534 37.6524 14.6579 39.7181 20 39.7181H22.9322L18.2259 44.4027L20.8481 47L30.014 37.8764L20.9677 28.7437L18.3271 31.3226L23.0005 36.0406H20C11.0142 36.0406 3.70367 28.7816 3.70367 19.8591C3.70367 10.9365 11.0142 3.67757 20 3.67757C28.9858 3.67757 36.2963 10.9366 36.2963 19.8594V21.6982L40 21.6978V19.8591C40 14.5545 37.9196 9.56744 34.1421 5.81662C30.3647 2.0657 25.3421 0 20 0C14.6579 0 9.63534 2.0657 5.8579 5.81662C2.08037 9.56753 0 14.5546 0 19.8591C0 25.1635 2.08037 30.1507 5.8579 33.9016Z" fill="#B8DEDC"/></svg>
