<svg width="1552" height="778" viewBox="0 0 1552 778" fill="none" xmlns="http://www.w3.org/2000/svg">
<path fill-rule="evenodd" clip-rule="evenodd" d="M1552 103.616L1531.74 88.7147C1531.74 88.7147 1539.07 63.1674 1515.54 49.8328C1492.01 36.4981 1468.03 49.8328 1468.03 49.8328C1468.03 49.8328 1461.44 30.4488 1439.05 30.4488C1416.66 30.4488 1406.46 49.8328 1406.46 49.8328C1406.46 49.8328 1374.26 45.3499 1365.77 67.0323C1357.27 88.7147 1357.78 78.9629 1357.78 78.9629C1357.78 78.9629 1341.88 25.0944 1311.12 8.36479C1280.37 -8.36479 1222.71 8.36479 1222.71 8.36479C1222.71 8.36479 1189.7 0.730737 1165.7 7.1591C1141.7 13.5875 1126.13 42.294 1126.13 42.294C1126.13 42.294 1108.79 45.3499 1082.54 67.0323C1056.29 88.7147 1041.23 128.217 1041.23 128.217C1041.23 128.217 974.165 88.7147 924.392 88.7147C874.618 88.7147 828.977 128.217 828.977 128.217C828.977 128.217 804.26 98.4665 765 88.7147C725.74 78.9629 688.293 103.616 688.293 103.616C688.293 103.616 648.295 67.0323 573.917 67.0323C499.538 67.0323 465.619 88.7147 465.619 88.7147C465.619 88.7147 443.342 78.9629 426.294 78.9629C409.246 78.9629 399.743 88.7147 399.743 88.7147C399.743 88.7147 383.786 67.0323 360.789 67.0323C337.791 67.0323 314.535 78.9629 314.535 78.9629C314.535 78.9629 305.846 59.4686 283.5 59.4686C261.154 59.4686 251.873 78.9629 251.873 78.9629C251.873 78.9629 213.354 79.0141 184.138 103.616C154.922 128.217 150 128.217 150 128.217C150 128.217 142.146 98.3297 96.6077 78.9629C51.069 59.5961 0 78.9629 0 78.9629L0 778H1552V103.616Z" fill="#FBFFFE"/>
</svg>
