<svg width="20" height="16" viewBox="0 0 20 16" fill="none" xmlns="http://www.w3.org/2000/svg">
<path d="M1.91961 4.84396C2.1726 5.0225 2.93523 5.55275 4.20753 6.43445C5.47986 7.31616 6.45456 7.99504 7.13165 8.47116C7.20605 8.52334 7.36409 8.63679 7.60587 8.81165C7.84769 8.98663 8.04861 9.12803 8.2085 9.23589C8.3685 9.34371 8.56192 9.46466 8.78896 9.59856C9.01592 9.73233 9.22987 9.83296 9.43076 9.89957C9.63168 9.96673 9.81768 10 9.98878 10H10H10.0113C10.1824 10 10.3684 9.96669 10.5694 9.89957C10.7702 9.83296 10.9843 9.73221 11.2111 9.59856C11.438 9.46451 11.6314 9.34367 11.7914 9.23589C11.9514 9.12803 12.1522 8.98663 12.3941 8.81165C12.6358 8.63663 12.794 8.52334 12.8684 8.47116C13.5528 7.99504 15.2941 6.78586 18.0916 4.84373C18.6347 4.46441 19.0885 4.00671 19.453 3.47094C19.8178 2.93541 20 2.3736 20 1.78584C20 1.29468 19.8232 0.874234 19.4697 0.524548C19.1163 0.174784 18.6977 0 18.2142 0H1.78564C1.21276 0 0.771892 0.193432 0.463112 0.580295C0.154371 0.967236 0 1.45089 0 2.03123C0 2.49999 0.204681 3.00796 0.613847 3.55483C1.02297 4.10174 1.45837 4.53149 1.91961 4.84396Z" fill="#9BC0BD"/>
<path d="M18.8838 6.00311C16.4435 7.70945 14.5906 9.03557 13.3259 9.98116C12.9018 10.3039 12.5578 10.5558 12.2936 10.7363C12.0294 10.917 11.678 11.1015 11.2389 11.2897C10.8 11.4782 10.3909 11.5722 10.0114 11.5722H10H9.9888C9.60934 11.5722 9.20006 11.4782 8.76115 11.2897C8.32224 11.1015 7.97061 10.917 7.70647 10.7363C7.44241 10.5558 7.09826 10.3039 6.6742 9.98116C5.66968 9.22021 3.82075 7.89402 1.12734 6.00311C0.703129 5.7112 0.327387 5.3766 0 5V14.1549C0 14.6625 0.174776 15.0966 0.524523 15.4579C0.874192 15.8194 1.29465 16 1.78575 16H18.2144C18.7053 16 19.1258 15.8194 19.4755 15.4579C19.8253 15.0965 20 14.6626 20 14.1549V5C19.68 5.3688 19.3081 5.7034 18.8838 6.00311Z" fill="#9BC0BD"/>
</svg>
