<svg width="225" height="164" viewBox="0 0 225 164" fill="none" xmlns="http://www.w3.org/2000/svg">
<path fill-rule="evenodd" clip-rule="evenodd" d="M92.9828 98.6744H77.4828V76.4644C77.4828 72.2644 80.9588 68.8488 85.2323 68.8488C89.5058 68.8488 92.9828 72.2644 92.9828 76.4644V98.6744ZM85.4995 61C76.9533 61 70 67.8031 70 76.1667L70 102.244C70 104.319 71.7182 106 73.8397 106H97.1603C99.2809 106 101 104.319 101 102.244V76.1667C101 67.8031 94.0458 61 85.4995 61Z" fill="white"/>
<path fill-rule="evenodd" clip-rule="evenodd" d="M196.22 134.427C187.478 128.163 175.431 124.853 161.387 124.853C149.758 124.853 145.43 116.481 140.421 106.786C135.868 97.9813 130.71 88 118.746 88C116.678 88 115 89.6757 115 91.7408C115 93.8067 116.678 95.4815 118.746 95.4815C125.785 95.4815 129.036 101.08 133.757 110.214C138.85 120.069 145.189 132.334 161.387 132.334C184.097 132.334 199.926 141.902 202.217 156.519H130.01C127.94 156.519 126.263 158.195 126.263 160.26C126.263 162.326 127.94 164 130.01 164H206.254C208.322 164 210 162.326 210 160.26C210 149.968 205.107 140.795 196.22 134.427Z" fill="white"/>
<path fill-rule="evenodd" clip-rule="evenodd" d="M211.124 127.413C202.077 118.546 189.88 113.662 176.787 113.662C158.463 113.662 156.927 110.561 152.817 102.272C152.135 100.896 151.362 99.3343 150.458 97.6794C142.623 83.2936 130.18 74 118.754 74C116.681 74 115 75.6763 115 77.7431C115 79.8117 116.681 81.4863 118.754 81.4863C125.892 81.4863 136.42 87.5985 143.857 101.25C144.691 102.78 145.398 104.209 146.081 105.59C151.15 115.815 154.82 121.149 176.787 121.149C199.609 121.149 217.489 138.328 217.489 160.255C217.489 162.325 219.17 164 221.245 164C223.318 164 225 162.325 225 160.255C225 147.845 220.073 136.182 211.124 127.413Z" fill="white"/>
<path fill-rule="evenodd" clip-rule="evenodd" d="M119.095 46.9325H47.0772L85.6907 8.96463L124.305 46.9325H119.095ZM56.0695 156.617H115.313V54.3151H56.0695V156.617ZM48.6641 121.814V156.617H13.2239L48.6641 121.814ZM135.877 47.9646L88.1728 1.08246C86.703 -0.360821 84.3457 -0.360821 82.8778 1.08246L35.173 47.9646C34.0824 49.0361 33.7509 50.6577 34.3313 52.0705C34.9098 53.4824 36.2906 54.4043 37.8206 54.4043H48.4439V111.056L1.12367 157.56C0.0348382 158.631 -0.299358 160.253 0.28279 161.665C0.863142 163.078 2.24125 164 3.77209 164H51.2765C51.4373 164 51.5918 163.971 51.7454 163.953C51.9008 163.971 52.0536 164 52.2135 164H118.832C120.916 164 122.605 162.317 122.605 160.237V54.4043H133.227C134.76 54.4043 136.137 53.4824 136.717 52.0705C137.3 50.6577 136.965 49.0361 135.877 47.9646Z" fill="white"/>
</svg>
