<svg width="299" height="85" viewBox="0 0 299 85" fill="none" xmlns="http://www.w3.org/2000/svg">
<path fill-rule="evenodd" clip-rule="evenodd" d="M55.0012 0H28.6902C26.3722 0 24.4922 1.879 24.4922 4.199C24.4922 6.517 26.3722 8.397 28.6902 8.397H37.6472V29.556C37.6472 31.875 39.5272 33.756 41.8462 33.756C44.1652 33.756 46.0442 31.875 46.0442 29.556V8.397H55.0012C57.3202 8.397 59.2002 6.517 59.2002 4.199C59.2002 1.879 57.3202 0 55.0012 0Z" fill="white"/>
<path fill-rule="evenodd" clip-rule="evenodd" d="M269.4 0H243.089C240.771 0 238.89 1.879 238.89 4.199C238.89 6.517 240.771 8.397 243.089 8.397H252.047V29.556C252.047 31.875 253.926 33.756 256.246 33.756C258.563 33.756 260.444 31.875 260.444 29.556V8.397H269.4C271.719 8.397 273.599 6.517 273.599 4.199C273.599 1.879 271.719 0 269.4 0Z" fill="white"/>
<path fill-rule="evenodd" clip-rule="evenodd" d="M125.226 48.002H4.198C1.88 48.002 0 46.121 0 43.803V29.556C0 27.236 1.88 25.357 4.198 25.357H129.938C132.256 25.357 134.136 27.236 134.136 29.556C134.136 31.875 132.256 33.756 129.938 33.756H8.397V39.604H125.226C127.544 39.604 129.424 41.484 129.424 43.803C129.424 46.121 127.544 48.002 125.226 48.002Z" fill="white"/>
<path fill-rule="evenodd" clip-rule="evenodd" d="M293.893 48.002H172.866C170.546 48.002 168.667 46.121 168.667 43.803C168.667 41.484 170.546 39.604 172.866 39.604H289.694V33.756H168.155C165.834 33.756 163.956 31.875 163.956 29.556C163.956 27.236 165.834 25.357 168.155 25.357H293.893C296.21 25.357 298.09 27.236 298.09 29.556V43.803C298.09 46.121 296.21 48.002 293.893 48.002Z" fill="white"/>
<path fill-rule="evenodd" clip-rule="evenodd" d="M156.341 37.783C156.341 41.998 152.924 45.414 148.71 45.414C144.497 45.414 141.081 41.998 141.081 37.783C141.081 33.569 144.497 30.154 148.71 30.154C152.924 30.154 156.341 33.569 156.341 37.783Z" fill="white"/>
<path fill-rule="evenodd" clip-rule="evenodd" d="M129.424 75.992H167.998V43.667C167.998 33.032 159.344 24.381 148.71 24.381C138.076 24.383 129.424 33.035 129.424 43.668V75.992ZM172.196 84.389H125.226C122.908 84.389 121.027 82.509 121.027 80.189V43.668C121.027 28.405 133.445 15.985 148.71 15.983C163.974 15.983 176.395 28.402 176.395 43.667V80.189C176.395 82.509 174.513 84.389 172.196 84.389Z" fill="white"/>
</svg>
