<svg width="181" height="166" viewBox="0 0 181 166" fill="none" xmlns="http://www.w3.org/2000/svg">
<path fill-rule="evenodd" clip-rule="evenodd" d="M7.80844 33.311C12.6681 31.273 36.35 22.8021 44.0316 20.062L69.4331 54.7896C70.0818 55.6771 71.1118 56.2004 72.2074 56.2004H142C141.682 70.7754 137.325 82.7455 129.309 90.9675C121.593 98.8797 110.83 103.062 98.1847 103.062C79.0591 103.062 64.4963 96.742 54.8999 84.275C45.406 71.9415 37.7122 46.3442 37.6359 46.0871C37.1824 44.5649 35.7629 43.5513 34.1777 43.623C34.1342 43.6246 29.792 43.8241 24.3115 43.8241C19.1582 43.8241 14.7421 43.6543 11.1855 43.3197C7.33362 42.9571 6.33478 40.1066 6.0822 38.4411C5.73695 36.1558 6.51109 33.8541 7.80844 33.311ZM0.16649 39.7464C1.06295 45.6325 5.46285 49.7944 11.3743 50.3482C15.124 50.6993 19.7311 50.8768 25.0699 50.8768C28.0831 50.8768 30.726 50.8206 32.5573 50.766C34.8184 57.7443 41.6107 77.271 50.0777 88.201C59.6737 100.587 73.4501 107.596 91.0905 109.106V149.642C91.0905 151.53 92.6232 153.062 94.5148 153.062C96.4064 153.062 97.94 151.53 97.94 149.642V109.409C98.1455 109.411 98.3429 109.423 98.5501 109.423C99.3283 109.423 100.098 109.401 100.865 109.374V149.642C100.865 151.53 102.399 153.062 104.29 153.062C106.181 153.062 107.715 151.53 107.715 149.642V108.72C118.26 107.085 127.373 102.576 134.4 95.4155C144.302 85.3268 149.344 70.5834 148.982 52.7802C148.944 50.9192 147.422 49.4303 145.557 49.4303H74.4444L48.6976 14.4567C47.8036 13.2431 46.2195 12.7553 44.7961 13.2578C43.4575 13.731 11.9501 24.8638 6.0159 27.3357C1.73101 29.121 -0.6745 34.2244 0.16649 39.7464Z" fill="white"/>
<path fill-rule="evenodd" clip-rule="evenodd" d="M99.0004 153.062C88.4998 153.062 80.6836 155.472 77 158.062H121C117.316 155.472 109.501 153.062 99.0004 153.062ZM68 161.661C68 152.768 81.5414 146.062 99.5 146.062C117.458 146.062 131 152.768 131 161.661C131 163.538 129.476 165.062 127.597 165.062H71.402C69.5231 165.062 68 163.538 68 161.661Z" fill="white"/>
<path fill-rule="evenodd" clip-rule="evenodd" d="M16.8364 7.09105C29.5074 0.446082 40.8834 -0.789677 51.6106 3.31262C64.1131 8.09209 75.3979 19.9901 86.1121 39.6861C86.8349 41.016 86.6054 42.6647 85.5464 43.7443L75.8106 53.668C76.7149 65.9471 89.7685 75.2917 101.057 75.2917C115.986 75.2917 127.246 65.4294 127.246 52.3504C127.246 37.689 137.73 26.6334 151.631 26.6334C158.142 26.6334 163.922 29.0084 168.344 33.5008C174.257 39.5087 177.314 48.9417 177.182 60.7799C176.894 86.7481 179.769 95.8784 180.656 98.0588C181.324 99.6994 181.005 101.452 179.822 102.633C178.942 103.513 177.765 103.952 176.266 103.952C174.718 103.952 172.828 103.482 170.576 102.541C159.825 98.0523 141.626 82.4217 141.613 52.3161C141.612 50.4195 143.142 48.8811 145.029 48.8811C145.029 48.8811 145.029 48.8811 145.03 48.8811C146.917 48.8811 148.447 50.4171 148.448 52.3136C148.456 71.3473 156.301 82.8527 162.88 89.1517C166.748 92.8565 170.392 94.9796 172.93 96.0796C171.107 88.3355 170.18 75.8748 170.348 60.7039C170.458 50.7409 168.085 43.0033 163.484 38.3293C160.374 35.17 156.276 33.5008 151.631 33.5008C141.625 33.5008 134.081 41.604 134.081 52.3504C134.081 69.0655 119.574 82.1583 101.057 82.1583C85.8973 82.1583 68.9456 69.4131 68.922 52.3488C68.922 52.3439 68.922 52.339 68.922 52.3341C68.922 52.3267 68.9212 52.321 68.9212 52.3144C68.9212 52.249 68.9375 52.1885 68.9407 52.1247C68.9489 51.9669 68.9578 51.8098 68.9879 51.6544C69.0075 51.5498 69.0449 51.4524 69.0742 51.3518C69.1076 51.2382 69.1345 51.1237 69.1792 51.0124C69.224 50.9037 69.2842 50.8047 69.3396 50.7017C69.3892 50.6076 69.4316 50.5111 69.491 50.4203C69.5756 50.2936 69.6766 50.1791 69.7759 50.0646C69.8214 50.0122 69.8556 49.9542 69.9045 49.9034L78.8809 40.7551C57.6282 3.09753 37.9726 4.65961 22.7002 11.8345L26.6911 22.5417C27.3528 24.3189 26.4558 26.2973 24.6887 26.9622C22.9224 27.6262 20.9518 26.7266 20.2892 24.9503L15.2174 11.3397C14.6126 9.7155 15.3069 7.89335 16.8364 7.09105Z" fill="white"/>
</svg>
